<?xml version="1.0" encoding="utf-8"?>
<!-- Generator: Adobe Illustrator 25.4.1, SVG Export Plug-In . SVG Version: 6.00 Build 0)  -->
<svg version="1.1" id="Layer_1" xmlns="http://www.w3.org/2000/svg" xmlns:xlink="http://www.w3.org/1999/xlink" x="0px" y="0px"
	 viewBox="0 0 348 104" style="enable-background:new 0 0 348 104;" xml:space="preserve">
<style type="text/css">
	.st0{fill:#271C20;}
	.st1{fill:#E42327;}
	.st2{fill:#A4302D;}
	.st3{fill:none;stroke:#000000;stroke-width:0.75;stroke-miterlimit:10;}
	.st4{fill:#FFFFFF;}
	.st5{fill:#64AF89;}
</style>
<g>
	<g>
		<g>
			<polygon class="st1" points="37.2,15.3 41.5,17.3 41.7,17.3 49.8,20.7 49.8,24 41.9,20.6 41.9,40.4 41.7,40.3 41.5,40.3 
				37.2,38.4 			"/>
		</g>
		<g>
			<polygon class="st1" points="43.2,22.7 47.6,24.6 47.8,24.7 52.6,26.8 52.6,29.2 48.1,27.3 48.1,45.9 47.8,45.8 47.6,45.8 
				43.2,43.8 			"/>
		</g>
		<g>
			<polygon class="st1" points="49.5,29.4 54.2,31.4 54.2,52.2 49.5,50.2 			"/>
		</g>
		<g>
			<polygon class="st2" points="72.8,15.3 68.5,17.3 68.2,17.3 60.1,20.7 60.1,24 68,20.6 68,40.4 68.2,40.3 68.5,40.3 72.8,38.4 
							"/>
		</g>
		<g>
			<polygon class="st2" points="66.6,22.7 62.2,24.6 62.1,24.7 57.3,26.8 57.3,29.2 61.7,27.3 61.7,45.9 62.1,45.8 62.2,45.8 
				66.6,43.8 			"/>
		</g>
		<g>
			<polygon class="st2" points="60.4,29.4 55.7,31.4 55.7,52.2 60.4,50.2 			"/>
		</g>
		<g>
			<path class="st0" d="M95.4,86.9h-7.6v-7.9h1v6.5c0,0.2,0.1,0.3,0.2,0.3c0.1,0.1,0.3,0.2,0.3,0.2h6.1V86.9z M82.3,83.5l-1.6-3.1
				c-0.1-0.1-0.2-0.2-0.3-0.2c-0.1,0-0.3,0.1-0.3,0.2l-1.6,3.1c-0.1,0.1-0.1,0.3,0,0.3c0.1,0.1,0.2,0.2,0.3,0.2h3.1
				c0.1,0,0.3-0.1,0.3-0.2C82.3,83.7,82.3,83.6,82.3,83.5 M85.3,86.9h-1.2c-0.1-0.1-0.3-0.5-0.7-1.3c-0.1-0.3-0.3-0.4-0.7-0.4h-4.4
				c-0.3,0-0.5,0.2-0.7,0.4l-0.6,1.3h-1.2l4-7.9h1.5C81.2,78.9,82.5,81.6,85.3,86.9 M73.1,84.6c0,0.6-0.2,1.1-0.6,1.6
				c-0.3,0.4-1,0.6-1.5,0.6h-6.5v-1h6.5c0.3,0,0.6-0.1,0.8-0.3c0.4-0.4,0.4-1.2,0-1.7c-0.2-0.3-0.5-0.3-0.8-0.3h-4.2
				c-0.6,0-1.1-0.2-1.5-0.6c-0.8-0.9-0.8-2.3,0-3.1c0.3-0.4,1-0.6,1.5-0.6h5.9v0.9h-5.9c-0.3,0-0.6,0.1-0.8,0.3
				c-0.3,0.3-0.3,0.5-0.3,0.9c0,0.4,0.1,0.6,0.3,0.9c0.2,0.3,0.5,0.3,0.8,0.3H71c0.5,0,1.1,0.3,1.5,0.6
				C72.9,83.5,73.1,84.1,73.1,84.6 M61.1,81.4c0-1-0.5-1.4-1.6-1.4h-4.5c-0.2,0-0.3,0.1-0.3,0.2c-0.1,0.1-0.2,0.3-0.2,0.3v1.7
				c0,0.2,0.1,0.3,0.2,0.3c0.1,0.1,0.2,0.2,0.3,0.2h4.6C60.6,82.7,61.1,82.2,61.1,81.4 M62,86.9h-1.3l-2.4-2.7
				c-0.2-0.3-0.5-0.4-0.9-0.3h-2.5c-0.2,0-0.3,0.1-0.3,0.2c-0.1,0.1-0.2,0.3-0.2,0.3V87h-0.9V79h6.1c0.6,0,1.3,0.2,1.7,0.6
				c0.4,0.4,0.7,1.1,0.7,1.7c0.1,1.1-0.7,2.3-2,2.4c-0.1,0-0.2,0-0.3,0c-0.1,0-0.2,0.1-0.2,0.3l0,0c0,0.1,0,0.1,0.1,0.2L62,86.9z
				 M51,86.9h-7.9v-7.9H51v1h-6.6c-0.2,0-0.3,0.1-0.3,0.2c-0.1,0.1-0.2,0.3-0.2,0.3v1.3c0,0.2,0.1,0.3,0.2,0.3
				c0.1,0.1,0.3,0.2,0.3,0.2H50v1h-5.5c-0.2,0-0.3,0.1-0.3,0.2c-0.1,0.1-0.2,0.3-0.2,0.3v1.4c0,0.2,0.1,0.3,0.2,0.3
				c0.1,0.1,0.3,0.2,0.3,0.2H51V86.9z M40.5,78.9l-3.8,7.9h-1.8l-3.8-7.9h1l3.1,6.6c0.1,0.3,0.3,0.4,0.6,0.3c0.3,0,0.5-0.2,0.6-0.3
				l3.1-6.6H40.5z M28.4,86.9h-1v-7.9h1V86.9z M24.7,86.9h-1.4l-5.8-6.6c0,0-0.1-0.1-0.2-0.1c-0.2,0-0.2,0.1-0.2,0.2v6.4h-1v-7.9
				h1.4l5.9,6.6c0,0,0.1,0.1,0.2,0.1c0.2,0,0.2-0.1,0.2-0.2v-6.4h1v7.9H24.7z M13.7,84.6c0,0.6-0.2,1.1-0.6,1.6
				c-0.3,0.4-1,0.6-1.5,0.6H7.3c-0.5,0-1.1-0.3-1.5-0.6c-0.4-0.4-0.6-1-0.6-1.6v-5.8h1v5.8c0,0.3,0.1,0.6,0.3,0.9
				c0.2,0.3,0.5,0.3,0.8,0.3h4.3c0.3,0,0.6-0.1,0.8-0.3c0.3-0.3,0.3-0.5,0.3-0.9v-5.8h1C13.7,78.8,13.7,84.6,13.7,84.6z"/>
		</g>
		<g>
			<polygon class="st0" points="87.4,52 87.4,51.3 90.9,51.3 90.9,52 89.6,52 89.6,55.9 88.6,55.9 88.6,52 			"/>
		</g>
		<g>
			<polygon class="st0" points="92.5,51.3 93.5,53.7 94.6,51.3 95.8,51.3 95.8,55.9 94.9,55.9 94.9,52.2 93.8,55.1 93.3,55.1 
				92.3,52.2 92.3,55.9 91.4,55.9 91.4,51.3 			"/>
		</g>
		<g>
			<path class="st0" d="M7.5,64.8c-0.1,0-0.3-0.1-0.3-0.2c-0.1-0.1-0.1-0.2-0.1-0.3v-2.6c0-0.1,0-0.3,0.1-0.3
				c0.1-0.1,0.2-0.2,0.3-0.2h6.5c1.2,0,2.2,0.3,2.2,1.7s-0.9,1.7-2.1,1.7L7.5,64.8z M14.6,66.9L14.6,66.9L14.6,66.9
				c2.3-0.3,3.6-1.5,3.6-3.9c0.1-1-0.3-2.2-1.1-3c-0.8-0.7-1.8-1-3-1H4.8v12.5H7v-4.2C7,67.2,7,67,7.1,67c0.1-0.1,0.2-0.2,0.3-0.2
				h3.5c0.4,0,0.8,0.2,1,0.4l3.6,4.2h3L14.6,66.9L14.6,66.9"/>
		</g>
		<g>
			<path class="st0" d="M48,63.7c0,0.1-0.1,0.3-0.2,0.3s-0.2,0.2-0.3,0.2h-8.2c-0.1,0-0.3-0.1-0.3-0.2c-0.1-0.1-0.2-0.2-0.2-0.3V59
				h-2.2v12.5h2.2v-4.6c0-0.1,0.1-0.3,0.2-0.3c0.1-0.1,0.2-0.2,0.3-0.2h8.2c0.1,0,0.3,0.1,0.3,0.2c0.1,0.1,0.1,0.2,0.1,0.3v4.7h2.2
				V59h-2.2L48,63.7L48,63.7z"/>
		</g>
		<g>
			<path class="st0" d="M89.8,66.6c0,0.1-0.1,0.1-0.2,0.1h-4.3c-0.1,0-0.2,0-0.2-0.1c0-0.1,0-0.2,0-0.2l2.3-4.6
				c0-0.1,0.1-0.1,0.1-0.1c0.1,0,0.1,0,0.1,0.1L89.8,66.6C89.8,66.5,89.9,66.6,89.8,66.6 M95,71c-1.5-3-3.2-5.9-4.7-8.8l-0.3-0.6
				l-1.3-2.7h-2.3l-0.1,0.2L80.2,71l-0.3,0.5h2.6l1-2.3c0.1-0.3,0.4-0.5,0.7-0.4h6.2c0.3,0,0.6,0.2,0.7,0.4c0.3,0.7,0.7,1.4,1,2.1
				l0.1,0.2H95L95,71z"/>
		</g>
		<g>
			<path class="st0" d="M51.7,71.6h12.3v-2.3h-9.9c-0.1,0-0.3-0.1-0.3-0.2c-0.1-0.1-0.2-0.3-0.2-0.3v-2.1c0-0.1,0-0.3,0.2-0.3
				c0.1-0.1,0.2-0.2,0.3-0.2h8.4v-2h-8.4c-0.1,0-0.3-0.1-0.3-0.2c-0.1-0.1-0.2-0.2-0.2-0.3v-2.1c0-0.1,0-0.3,0.1-0.3
				c0.1-0.1,0.2-0.2,0.3-0.2H64v-2.3H51.6v12.6H51.7z"/>
		</g>
		<g>
			<path class="st0" d="M73.7,61.2h2.5c0.1,0,0.3,0.1,0.3,0.2c0.1,0.1,0.2,0.2,0.2,0.3v6.2c0,0.3-0.2,0.8-0.4,1
				c-0.3,0.3-0.6,0.4-1,0.4h-6.2c-0.3,0-0.8-0.2-1-0.4c-0.3-0.3-0.4-0.6-0.4-1v-2.2h-2.2V68c0,1,0.3,1.8,1,2.6c0.6,0.7,1.6,1,2.5,1
				h6.2c1,0,1.8-0.3,2.5-1c0.7-0.7,1-1.6,1-2.6v-8.8h-5.1C73.7,59,73.7,61.2,73.7,61.2z"/>
		</g>
		<g>
			<path class="st0" d="M29.7,66.6c0,0.1-0.1,0.1-0.2,0.1h-4.3c-0.1,0-0.2-0.1-0.2-0.2v-0.1l2.3-4.6c0-0.1,0.1-0.1,0.1-0.1
				c0.1,0,0.1,0,0.1,0.1L29.7,66.6C29.7,66.5,29.8,66.6,29.7,66.6 M34.9,71c-1.5-3-3.2-5.9-4.7-8.8c-0.1-0.2-0.2-0.3-0.3-0.6
				l-1.3-2.7h-2.3l-0.1,0.2L20.1,71l-0.3,0.5h2.6l1-2.3c0.1-0.3,0.4-0.5,0.7-0.5h6.2c0.3,0,0.6,0.2,0.7,0.4c0.3,0.7,0.7,1.4,1,2.1
				l0.1,0.2h2.8L34.9,71z"/>
		</g>
	</g>
	<line class="st3" x1="103.5" y1="15.3" x2="103.5" y2="89"/>
	<g>
		<g>
			<g>
				<g>
					<path class="st4" d="M116.5,19.8L116.5,19.8c1-0.5,1.7-1.9,2.3-4.1h-7v5.2C114,20.6,115.6,20.3,116.5,19.8z"/>
				</g>
			</g>
			<g>
				<g>
					<path class="st0" d="M123.3,15.7L123.3,15.7h-1.7v5.6h1.1c3,0,5.1,1.5,5.1,4.3v0.1c0,2.4-1.8,4.3-5,4.3h-1.2v5.5h1.1
						c6.3,0,11.3-3.4,11.3-9.9v-0.1C134.1,19.8,130.1,15.7,123.3,15.7z"/>
				</g>
			</g>
			<g>
				<g>
					<polygon class="st0" points="117.8,23.8 117.8,23.8 111.8,23.8 111.8,44.1 117.8,44.1 					"/>
				</g>
			</g>
			<g>
				<g>
					<path class="st0" d="M138.8,15.7L138.8,15.7h13c3.6,0,6.4,1,8.2,2.9c1.6,1.6,2.4,3.8,2.4,6.4v0.1c0,4.6-2.5,7.5-6.1,8.8
						l6.9,10.2h-7.3l-6.1-9h-4.9v9h-6.2V15.7H138.8z M151.3,29.5L151.3,29.5c3,0,4.8-1.6,4.8-4.1v-0.1c0-2.7-1.9-4.1-4.9-4.1h-6.2
						v8.1h6.3L151.3,29.5L151.3,29.5z"/>
				</g>
			</g>
			<g>
				<g>
					<polygon class="st0" points="168.3,15.7 168.3,15.7 174.4,15.7 174.4,44.1 168.3,44.1 					"/>
				</g>
			</g>
			<g>
				<g>
					<polygon class="st0" points="181.5,15.7 181.5,15.7 188.1,15.7 195.6,27.7 203,15.7 209.7,15.7 209.7,44.1 203.6,44.1 
						203.6,25.5 195.6,37.7 195.5,37.7 187.6,25.7 187.6,44.1 181.5,44.1 					"/>
				</g>
			</g>
			<g>
				<g>
					<polygon class="st0" points="216.5,15.7 216.5,15.7 237.8,15.7 237.8,21.4 222.7,21.4 222.7,27.1 236,27.1 236,32.6 
						222.7,32.6 222.7,38.5 238,38.5 238,44.1 216.5,44.1 					"/>
				</g>
			</g>
			<g>
				<g>
					<path class="st5" d="M116.5,19.8L116.5,19.8c1-0.5,1.7-1.9,2.3-4.1h-7v5.2C114,20.6,115.6,20.3,116.5,19.8z"/>
				</g>
			</g>
			<g>
				<path class="st5" d="M268.9,15.6v5.7h-7.8V45H254V21.4h-7.8v-5.7H268.9z"/>
			</g>
			<g>
				<path class="st5" d="M310.8,15.6L305.4,45h-8.7L292,25.7L287.1,45h-8.7l-5.1-29.4h7.7l2.4,21.8l4.8-21.8h7.9l4.7,21.8l2.4-21.8
					H310.8z"/>
			</g>
			<g>
				<path class="st5" d="M320.7,43.4c-2.3-1.2-4.2-3.1-5.5-5.4c-1.4-2.3-2.1-4.9-2.1-7.8s0.7-5.5,2.1-7.8s3.2-4.1,5.5-5.4
					c2.3-1.2,4.9-2,7.6-2c2.8,0,5.3,0.6,7.6,2c2.3,1.2,4.2,3.1,5.4,5.4c1.4,2.3,2,4.9,2,7.8s-0.6,5.5-2,7.8
					c-1.4,2.3-3.1,4.1-5.4,5.4c-2.3,1.2-4.8,2-7.6,2C325.5,45.3,323.1,44.6,320.7,43.4z M334,36.4c1.5-1.6,2.1-3.6,2.1-6.2
					s-0.7-4.7-2.1-6.2c-1.5-1.6-3.3-2.3-5.6-2.3c-2.4,0-4.3,0.7-5.7,2.3s-2.1,3.6-2.1,6.2s0.7,4.7,2.1,6.2c1.5,1.6,3.3,2.3,5.7,2.3
					C330.6,38.8,332.5,38,334,36.4z"/>
			</g>
		</g>
		<g>
			<path d="M127.8,65.9h-2.2l-1.7-4.4l-1.5-4.4l-1.5,4.5l-1.7,4.4h-2.2l-5.1-14h3l3.3,10.1l3.4-10.1h1.7l3.5,10.1l3.2-10.1h3
				L127.8,65.9z"/>
			<path d="M148.2,59c0,3.6-2.3,7.2-7.2,7.2c-4.9,0-7.2-3.5-7.2-7.2c0-3.7,2.4-7.4,7.2-7.4C145.8,51.7,148.2,55.4,148.2,59z
				 M136.4,59.1c0.1,2.3,1.3,4.8,4.6,4.8c3.3,0,4.5-2.5,4.6-4.8c0-2.4-1.3-5-4.6-5C137.7,54.1,136.3,56.7,136.4,59.1z"/>
			<path d="M162.5,65.9h-3.1l-4.1-4.7h-2.5v4.7h-2.6v-14c2.2,0,4.4,0,6.6,0c3.3,0,5,2.2,5,4.6c0,1.9-0.9,3.9-3.5,4.4l4.2,4.8V65.9z
				 M152.8,54.4v4.5h4c1.7,0,2.4-1.1,2.4-2.2c0-1.1-0.7-2.2-2.4-2.2H152.8z"/>
			<path d="M166.2,51.9v11.5h7.2v2.4h-9.8v-14H166.2z"/>
			<path d="M187.5,58.8c0.1,3.5-2.1,7.1-7,7.1c-1.7,0-3.8,0-5.5,0v-14c1.7,0,3.8,0,5.5,0C185.4,51.9,187.5,55.4,187.5,58.8z
				 M177.7,63.4h2.9c3.2,0,4.4-2.3,4.4-4.6c-0.1-2.2-1.3-4.4-4.4-4.4h-2.9V63.4z"/>
			<path d="M196.9,54.3h-4.4v-2.4c4,0,7.4,0,11.5,0v2.4h-4.4v11.6h-2.6V54.3z"/>
			<path d="M218,65.9h-3.1l-4.1-4.7h-2.5v4.7h-2.6v-14c2.2,0,4.4,0,6.6,0c3.3,0,5,2.2,5,4.6c0,1.9-0.9,3.9-3.5,4.4l4.2,4.8V65.9z
				 M208.2,54.4v4.5h4c1.7,0,2.4-1.1,2.4-2.2c0-1.1-0.7-2.2-2.4-2.2H208.2z"/>
			<path d="M229,63.3h-7.3l-1.2,2.6h-2.9l6.3-14h2.9l6.3,14h-2.9L229,63.3z M225.3,54.9l-2.6,5.9h5.2L225.3,54.9z"/>
			<path d="M246.9,58.8c0.1,3.5-2.1,7.1-7,7.1c-1.7,0-3.8,0-5.5,0v-14c1.7,0,3.8,0,5.5,0C244.8,51.9,246.9,55.4,246.9,58.8z
				 M237.1,63.4h2.9c3.2,0,4.4-2.3,4.4-4.6c-0.1-2.2-1.3-4.4-4.4-4.4h-2.9V63.4z"/>
			<path d="M259.1,65.9h-10.5c0-4.7,0-9.3,0-14h10.5v2.6h-7.8v3.2h7.6v2.5h-7.6v3.2h7.8V65.9z"/>
			<path d="M277.5,64.2c-1.4,1.4-3.3,2.1-5.3,2.1c-5.2,0-7.4-3.6-7.4-7.2c0-3.7,2.4-7.4,7.4-7.4c1.9,0,3.7,0.7,5.1,2.1l-1.8,1.7
				c-0.9-0.9-2.2-1.3-3.4-1.3c-3.4,0-4.8,2.5-4.8,4.9c0,2.3,1.4,4.7,4.8,4.7c1.2,0,2.6-0.5,3.5-1.4L277.5,64.2z"/>
			<path d="M289.4,65.9h-10.5c0-4.7,0-9.3,0-14h10.5v2.6h-7.8v3.2h7.6v2.5h-7.6v3.2h7.8V65.9z"/>
			<path d="M301,51.9h2.6v14H302v0l-7.3-9.4v9.4H292v-14h2.1l6.8,8.7V51.9z"/>
			<path d="M309.7,54.3h-4.4v-2.4c4,0,7.4,0,11.5,0v2.4h-4.4v11.6h-2.6V54.3z"/>
			<path d="M328.8,65.9h-10.5c0-4.7,0-9.3,0-14h10.5v2.6h-7.8v3.2h7.6v2.5h-7.6v3.2h7.8V65.9z"/>
			<path d="M343.2,65.9h-3.1l-4.1-4.7h-2.5v4.7h-2.6v-14c2.2,0,4.4,0,6.6,0c3.3,0,5,2.2,5,4.6c0,1.9-0.9,3.9-3.5,4.4l4.2,4.8V65.9z
				 M333.5,54.4v4.5h4c1.7,0,2.4-1.1,2.4-2.2c0-1.1-0.7-2.2-2.4-2.2H333.5z"/>
		</g>
		<g>
			<path d="M120.4,82.5c0,2.5-1.6,4.4-4.3,4.4c-2.5,0-4.3-1.5-4.3-4.3h1.8c0,1.7,0.8,2.5,2.5,2.5c1.7,0,2.5-1.2,2.5-2.7v-3.9h-3
				v-1.7c1.6,0,3.2,0,4.8,0V82.5z"/>
			<path d="M133.6,76.9v5.6c0,2.9-1.8,4.4-4.2,4.4c-2.4,0-4.4-1.4-4.4-4.4v-5.6h1.8v5.6c0,1.8,1,2.7,2.5,2.7c1.5,0,2.4-1,2.4-2.7
				v-5.6H133.6z"/>
			<path d="M138.2,86.7v-9.8h1.8v9.8H138.2z"/>
			<path d="M151.1,76.8h1.9v9.8h-1.1v0l-5.2-6.6v6.6h-1.9v-9.8h1.5l4.8,6.1V76.8z"/>
			<path d="M164.4,84.8h-5.1l-0.8,1.9h-2l4.4-9.8h2l4.4,9.8h-2L164.4,84.8z M161.8,78.9l-1.8,4.2h3.6L161.8,78.9z"/>
			<path d="M177.7,79.2c-0.7-0.6-1.6-1-2.5-1c-2.1,0-3.4,1.6-3.4,3.6c0,1.6,0.9,3.3,3.4,3.3c0.8,0,1.4-0.2,2.2-0.8v-1.7H175V81h4.2
				v4.1c-1,1.1-2.2,1.8-3.9,1.8c-3.7,0-5.2-2.4-5.2-5c0-2.8,1.7-5.3,5.2-5.3c1.3,0,2.6,0.5,3.6,1.5L177.7,79.2z"/>
			<path d="M190.5,84.8h-5.1l-0.8,1.9h-2l4.4-9.8h2l4.4,9.8h-2L190.5,84.8z M187.9,78.9l-1.8,4.2h3.6L187.9,78.9z"/>
			<path d="M205.6,86.7h-2.2l-2.9-3.3h-1.8v3.3H197v-9.8c1.6,0,3.1,0,4.7,0c2.3,0,3.5,1.6,3.5,3.3c0,1.3-0.6,2.7-2.5,3.1l3,3.4V86.7
				z M198.8,78.6v3.1h2.8c1.2,0,1.7-0.8,1.7-1.6s-0.5-1.6-1.7-1.6H198.8z"/>
			<path d="M210.5,88h-1l0.3-1.4c-0.4-0.1-0.7-0.3-0.7-0.8c0-1.3,2-1.2,2,0C211.1,86.1,211.1,86.1,210.5,88z"/>
			<path d="M227.6,76.8h1.9v9.8h-1.1v0l-5.2-6.6v6.6h-1.9v-9.8h1.5l4.8,6.1V76.8z"/>
			<path d="M240.9,84.8h-5.1l-0.8,1.9h-2l4.4-9.8h2l4.4,9.8h-2L240.9,84.8z M238.4,78.9l-1.8,4.2h3.6L238.4,78.9z"/>
			<path d="M251.1,86.7h-1.9l-4.1-9.9h2.1l3,7.6l3-7.6h2.1L251.1,86.7z"/>
			<path d="M259.2,86.7v-9.8h1.8v9.8H259.2z"/>
			<path d="M279.8,79.6l-3.2,4.3h-0.4l-3.1-4.3v7.1h-1.9v-9.8h2.1l3.1,4.2l3.1-4.2h2.1v9.8h-1.9V79.6z"/>
			<path d="M294.8,76.9v5.6c0,2.9-1.8,4.4-4.2,4.4c-2.4,0-4.4-1.4-4.4-4.4v-5.6h1.8v5.6c0,1.8,1,2.7,2.5,2.7s2.4-1,2.4-2.7v-5.6
				H294.8z"/>
			<path d="M308,79.6l-3.2,4.3h-0.4l-3.1-4.3v7.1h-1.9v-9.8h2.1l3.1,4.2l3.1-4.2h2.1v9.8H308V79.6z"/>
			<path d="M322.3,79.7c0,0.8-0.4,1.5-1.3,1.9c1.1,0.4,1.6,1.6,1.6,2.2c0,2.2-1.6,2.9-3.7,2.9c-1.6,0-3.1,0-4.7,0v-9.8
				c1.5,0,3.1,0,4.7,0C320.9,76.8,322.3,77.7,322.3,79.7z M316.1,80.8h2.8c1.2,0,1.5-0.5,1.5-1.1c0-0.4-0.4-1.2-1.5-1.2h-2.8V80.8z
				 M316.1,84.9h2.8c0.8,0,1.8-0.3,1.8-1.2c0-0.9-1.1-1.3-1.8-1.3h-2.8V84.9z"/>
			<path d="M333.7,84.8h-5.1l-0.8,1.9h-2l4.4-9.8h2l4.4,9.8h-2L333.7,84.8z M331.1,78.9l-1.8,4.2h3.6L331.1,78.9z"/>
			<path d="M340.1,86.7v-9.8h1.8v9.8H340.1z"/>
		</g>
		<line class="st3" x1="111.8" y1="71.8" x2="341.9" y2="71.8"/>
	</g>
</g>
</svg>
